HIERARCHY
ROOT reference
{
  OFFSET -65.3212 -1.93545 -120.338
  CHANNELS 6 Xposition Yposition Zposition Zrotation Xrotation Yrotation
  JOINT Hips
  {
    OFFSET 0 78.7191 0
    CHANNELS 3 Zrotation Xrotation Yrotation
    JOINT Chest
    {
      OFFSET 0 8.7983 -4.7612
      CHANNELS 3 Zrotation Xrotation Yrotation
      JOINT Chest2
      {
        OFFSET 0 8.0291 0.4195
        CHANNELS 3 Zrotation Xrotation Yrotation
        JOINT Chest3
        {
          OFFSET 0 9.9351 -2.2114
          CHANNELS 3 Zrotation Xrotation Yrotation
          JOINT Neck
          {
            OFFSET 0 22.3885 -0.4656
            CHANNELS 3 Zrotation Xrotation Yrotation
            JOINT Head
            {
              OFFSET -0.0001 12.643 3.4389
              CHANNELS 3 Zrotation Xrotation Yrotation
              End Site
              {
                OFFSET 0.0001 17.6655 0.5274
              }
            }
          }
          JOINT LeftCollar
          {
            OFFSET 2.2603 21.606 7.4023
            CHANNELS 3 Zrotation Xrotation Yrotation
            JOINT LeftShoulder
            {
              OFFSET 13.5163 -1.1332 -5.0146
              CHANNELS 3 Zrotation Xrotation Yrotation
              JOINT LeftElbow
              {
                OFFSET -0.0995 -28.05 -0.2431
                CHANNELS 3 Zrotation Xrotation Yrotation
                JOINT LeftWrist
                {
                  OFFSET 0.0679 -23.3996 -0.1402
                  CHANNELS 3 Zrotation Xrotation Yrotation
                  JOINT LeftFinger1
                  {
                    OFFSET 0.7932 -9.069 2.5189
                    CHANNELS 3 Zrotation Xrotation Yrotation
                    JOINT LeftFinger11
                    {
                      OFFSET -0.8272 -3.3923 0.5977
                      CHANNELS 3 Zrotation Xrotation Yrotation
                      JOINT LeftFinger12
                      {
                        OFFSET -0.5649 -2.3158 0.4082
                        CHANNELS 3 Zrotation Xrotation Yrotation
                        End Site
                        {
                          OFFSET -0.4919 -1.6479 0.2673
                        }
                      }
                    }
                  }
                  JOINT LeftFinger2
                  {
                    OFFSET 0.9159 -9.2044 0.2193
                    CHANNELS 3 Zrotation Xrotation Yrotation
                    JOINT LeftFinger21
                    {
                      OFFSET 0.0117 -4.1944 -0.0248
                      CHANNELS 3 Zrotation Xrotation Yrotation
                      JOINT LeftFinger22
                      {
                        OFFSET 0.0071 -2.3249 -0.0142
                        CHANNELS 3 Zrotation Xrotation Yrotation
                        End Site
                        {
                          OFFSET -0.1475 -2.0882 0.0028
                        }
                      }
                    }
                  }
                  JOINT LeftFinger3
                  {
                    OFFSET 0.6113 -8.7231 -2.0637
                    CHANNELS 3 Zrotation Xrotation Yrotation
                    JOINT LeftFinger31
                    {
                      OFFSET -0.1927 -3.8059 -0.2383
                      CHANNELS 3 Zrotation Xrotation Yrotation
                      JOINT LeftFinger32
                      {
                        OFFSET -0.1091 -2.1688 -0.1362
                        CHANNELS 3 Zrotation Xrotation Yrotation
                        End Site
                        {
                          OFFSET -0.2358 -1.9176 -0.0906
                        }
                      }
                    }
                  }
                  JOINT LeftFinger4
                  {
                    OFFSET -0.6151 -8.0947 -3.5641
                    CHANNELS 3 Zrotation Xrotation Yrotation
                    JOINT LeftFinger41
                    {
                      OFFSET -0.4882 -2.341 -0.6462
                      CHANNELS 3 Zrotation Xrotation Yrotation
                      JOINT LeftFinger42
                      {
                        OFFSET -0.3575 -1.7167 -0.4742
                        CHANNELS 3 Zrotation Xrotation Yrotation
                        End Site
                        {
                          OFFSET -0.4187 -1.5237 -0.3496
                        }
                      }
                    }
                  }
                  JOINT LeftFinger0
                  {
                    OFFSET -1.42 -1.8761 1.4223
                    CHANNELS 3 Zrotation Xrotation Yrotation
                    JOINT LeftFinger01
                    {
                      OFFSET -1.1471 -3.4929 2.6334
                      CHANNELS 3 Zrotation Xrotation Yrotation
                      JOINT LeftFinger02
                      {
                        OFFSET -0.823 -2.3 1.6571
                        CHANNELS 3 Zrotation Xrotation Yrotation
                        End Site
                        {
                          OFFSET -0.5822 -1.6914 1.1582
                        }
                      }
                    }
                  }
                }
              }
            }
          }
          JOINT RightCollar
          {
            OFFSET -2.2603 21.606 7.4023
            CHANNELS 3 Zrotation Xrotation Yrotation
            JOINT RightShoulder
            {
              OFFSET -13.5187 -1.1334 -5.0155
              CHANNELS 3 Zrotation Xrotation Yrotation
              JOINT RightElbow
              {
                OFFSET 0.0994 -28.0499 -0.2431
                CHANNELS 3 Zrotation Xrotation Yrotation
                JOINT RightWrist
                {
                  OFFSET -0.0679 -23.3996 -0.1402
                  CHANNELS 3 Zrotation Xrotation Yrotation
                  JOINT RightFinger1
                  {
                    OFFSET -0.7932 -9.0691 2.5189
                    CHANNELS 3 Zrotation Xrotation Yrotation
                    JOINT RightFinger11
                    {
                      OFFSET 0.8272 -3.3923 0.5977
                      CHANNELS 3 Zrotation Xrotation Yrotation
                      JOINT RightFinger12
                      {
                        OFFSET 0.565 -2.3158 0.4082
                        CHANNELS 3 Zrotation Xrotation Yrotation
                        End Site
                        {
                          OFFSET 0.4919 -1.6479 0.2673
                        }
                      }
                    }
                  }
                  JOINT RightFinger2
                  {
                    OFFSET -0.916 -9.2044 0.2193
                    CHANNELS 3 Zrotation Xrotation Yrotation
                    JOINT RightFinger21
                    {
                      OFFSET -0.0117 -4.1944 -0.0248
                      CHANNELS 3 Zrotation Xrotation Yrotation
                      JOINT RightFinger22
                      {
                        OFFSET -0.0071 -2.3249 -0.0142
                        CHANNELS 3 Zrotation Xrotation Yrotation
                        End Site
                        {
                          OFFSET 0.1475 -2.0882 0.0028
                        }
                      }
                    }
                  }
                  JOINT RightFinger3
                  {
                    OFFSET -0.6113 -8.7231 -2.0637
                    CHANNELS 3 Zrotation Xrotation Yrotation
                    JOINT RightFinger31
                    {
                      OFFSET 0.1927 -3.8059 -0.2383
                      CHANNELS 3 Zrotation Xrotation Yrotation
                      JOINT RightFinger32
                      {
                        OFFSET 0.1091 -2.1688 -0.1362
                        CHANNELS 3 Zrotation Xrotation Yrotation
                        End Site
                        {
                          OFFSET 0.2358 -1.9176 -0.0906
                        }
                      }
                    }
                  }
                  JOINT RightFinger4
                  {
                    OFFSET 0.6151 -8.0947 -3.564
                    CHANNELS 3 Zrotation Xrotation Yrotation
                    JOINT RightFinger41
                    {
                      OFFSET 0.4882 -2.341 -0.6462
                      CHANNELS 3 Zrotation Xrotation Yrotation
                      JOINT RightFinger42
                      {
                        OFFSET 0.3574 -1.7166 -0.4742
                        CHANNELS 3 Zrotation Xrotation Yrotation
                        End Site
                        {
                          OFFSET 0.4187 -1.5237 -0.3496
                        }
                      }
                    }
                  }
                  JOINT RightFinger0
                  {
                    OFFSET 1.4199 -1.8761 1.4221
                    CHANNELS 3 Zrotation Xrotation Yrotation
                    JOINT RightFinger01
                    {
                      OFFSET 1.1472 -3.4929 2.6336
                      CHANNELS 3 Zrotation Xrotation Yrotation
                      JOINT RightFinger02
                      {
                        OFFSET 0.8229 -2.3 1.6571
                        CHANNELS 3 Zrotation Xrotation Yrotation
                        End Site
                        {
                          OFFSET 0.5822 -1.6914 1.1582
                        }
                      }
                    }
                  }
                }
              }
            }
          }
        }
      }
    }
    JOINT RightHip
    {
      OFFSET -9.412 3.9771 -0.7758
      CHANNELS 3 Zrotation Xrotation Yrotation
      JOINT RightKnee
      {
        OFFSET -0.7531 -40.938 0
        CHANNELS 3 Zrotation Xrotation Yrotation
        JOINT RightAnkle
        {
          OFFSET 0 -40.1986 0
          CHANNELS 3 Zrotation Xrotation Yrotation
          JOINT RightToe
          {
            OFFSET 0 -4.4182 9.239
            CHANNELS 3 Zrotation Xrotation Yrotation
            End Site
            {
              OFFSET 0 0 6.1981
            }
          }
        }
      }
    }
    JOINT LeftHip
    {
      OFFSET 9.4119 3.9773 -0.7758
      CHANNELS 3 Zrotation Xrotation Yrotation
      JOINT LeftKnee
      {
        OFFSET 0.7532 -40.9383 0
        CHANNELS 3 Zrotation Xrotation Yrotation
        JOINT LeftAnkle
        {
          OFFSET 0 -40.1986 0
          CHANNELS 3 Zrotation Xrotation Yrotation
          JOINT LeftToe
          {
            OFFSET 0 -4.4182 9.239
            CHANNELS 3 Zrotation Xrotation Yrotation
            End Site
            {
              OFFSET 0 0 6.1981
            }
          }
        }
      }
    }
  }
}
MOTION
Frames:	4
Frame Time:	0.0333333
9.72154 58.4717 6.64735 0 0 -0 -174.305 -70.7669 166.106 4.73913 9.63335 -1.18863 9.89531 19.1293 -3.26357 9.89534 19.1294 -3.26358 -1.97087 -7.83638 -48.9039 13.3154 3.48522 -33.4539 7.19866 -2.3074 -35.1201 45.2087 -36.2363 12.2237 16.9093 -46.7421 44.794 -25.3578 0.428447 102.964 -3.03457 13.5333 -2.18209 -35.3167 20.4568 4.66827 -36.3891 20.9688 4.99574 -1.00372 1.77404 1.17349 -42.7842 24.7471 5.54526 -8.91324 5.6288 -0.442211 -6.58206 6.72801 5.0649 -13.8828 9.68231 -0.672444 -15.2684 10.6412 -0.61061 13.8074 -0.976079 8.79344 -17.7367 12.2751 -1.06115 -8.75064 6.03021 -1.00086 -11.5753 -16.7454 -49.448 -4.53234 0.274138 0.313114 8.53294 10.6973 -3.07911 -8.96854 -1.0016 11.1365 -27.5884 -49.8464 19.4932 -6.29931 -59.4969 -44.2819 13.9787 23.9331 -54.559 11.6477 14.2793 0.992764 44.2764 13.1569 -6.11043 45.4054 13.4037 -6.38645 23.1834 8.33169 -2.56721 52.3752 15.6203 -6.40179 15.3504 5.19875 -0.333535 25.269 18.9546 -14.6866 34.2738 12.8511 -1.99878 35.901 13.3937 -2.27898 41.1339 16.4553 -22.7613 33.5476 12.5281 -0.865857 5.34489 2.01282 0.36104 9.91526 -19.9007 48.0804 1.41319 -0.442864 -1.52296 -7.19737 14.5369 5.60461 -68.5222 -13.1946 -62.5196 -0.887991 -0.0497457 0.903665 9.92235 7.60267 -2.77313 0.333948 2.30616 -0.13893 105.077 -38.5889 102.692 0.184185 0.0514862 -0.0689019 -8.13585 10.8163 -3.60619 0.624413 -4.65864 0.0253778 
8.42086 56.8108 9.0497 0 0 -0 -153.46 -72.5302 -171.501 4.8144 9.25186 -1.0361 9.99748 18.3791 -2.92488 9.99748 18.3792 -2.92488 -1.9907 -8.75395 -49.4342 13.5992 4.02058 -33.4573 7.41333 -2.33046 -35.2842 45.6877 -35.5247 12.2049 19.8882 -49.3325 47.7294 -24.7246 2.89981 102.328 -3.03458 13.5333 -2.18206 -35.3167 20.4568 4.66828 -36.3891 20.9688 4.99578 -1.00373 1.77405 1.17349 -42.7842 24.7471 5.54533 -8.9132 5.62881 -0.442123 -6.58208 6.72801 5.06498 -13.8828 9.68229 -0.672431 -15.2684 10.6412 -0.610573 13.8074 -0.976068 8.79358 -17.7367 12.2752 -1.0611 -8.75063 6.0302 -1.00084 -11.5753 -16.7454 -49.448 -4.53239 0.274135 0.313184 8.53296 10.6973 -3.0791 -9.06041 -0.995055 10.6567 -27.781 -49.2811 20.0296 -8.72161 -61.5166 -46.1052 14.632 22.6954 -56.5014 11.6477 14.2793 0.992807 44.2764 13.1569 -6.11042 45.4054 13.4037 -6.38643 23.1834 8.33164 -2.56712 52.3752 15.6203 -6.40185 15.3503 5.19875 -0.333509 25.269 18.9546 -14.6866 34.2738 12.851 -1.99875 35.901 13.3937 -2.27899 41.1339 16.4553 -22.7612 33.5476 12.5281 -0.865867 5.3449 2.0128 0.361041 9.91528 -19.9007 48.0805 1.41315 -0.442765 -1.52293 -7.19739 14.5369 5.60462 -66.2896 -12.2858 -58.5012 0.284049 2.06963 0.705416 9.95699 10.0164 -0.780972 0.455633 3.1358 -0.192287 104.629 -41.5595 101.293 0.189088 0.0415718 -0.119372 -8.53365 12.1198 -4.14293 0.563655 -4.20694 0.0206871 
6.68129 54.7617 11.2227 0 0 -0 -130.789 -71.442 -147.57 4.90373 8.9313 -0.930538 10.1422 17.7461 -2.6908 10.1422 17.7462 -2.69081 -1.98989 -9.6425 -49.4058 13.5146 4.36283 -33.4081 7.81985 -2.34765 -35.2502 46.6906 -34.8895 12.4986 23.0843 -51.9651 50.9241 -23.8629 5.95129 101.743 -3.0346 13.5333 -2.18205 -35.3167 20.4567 4.66828 -36.3891 20.9688 4.9959 -1.00375 1.774 1.17348 -42.7841 24.7472 5.5452 -8.91325 5.62875 -0.442289 -6.58212 6.72799 5.06505 -13.8828 9.68236 -0.672361 -15.2684 10.6411 -0.610514 13.8074 -0.976115 8.79333 -17.7367 12.2752 -1.061 -8.75064 6.03019 -1.00084 -11.5753 -16.7454 -49.4479 -4.53232 0.274145 0.313054 8.53296 10.6973 -3.07908 -9.0054 -0.979188 10.3188 -27.9943 -49.0031 19.9693 -10.6707 -63.453 -47.5097 15.2334 21.5731 -58.0562 11.6478 14.2793 0.992684 44.2764 13.157 -6.11042 45.4054 13.4038 -6.38642 23.1834 8.33156 -2.56732 52.3752 15.6204 -6.40184 15.3504 5.19875 -0.333504 25.269 18.9547 -14.6866 34.2738 12.851 -1.99869 35.9011 13.3937 -2.27899 41.1339 16.4552 -22.7613 33.5476 12.5281 -0.865865 5.34492 2.0128 0.361074 9.91524 -19.9007 48.0803 1.41314 -0.442767 -1.52292 -7.19739 14.5369 5.60464 -64.4935 -11.7747 -52.8053 1.66518 6.26235 0.268027 10.764 11.0511 0.0337541 0.6359 4.35354 -0.273927 104.032 -44.8778 100.818 0.177582 0.00240336 -0.208223 -8.72796 14.0895 -5.46546 0.621922 -4.64004 0.0251896 
4.54888 52.3256 13.087 0 0 -0 -112.777 -67.5597 -128.673 5.03568 8.62629 -0.884208 10.385 17.1378 -2.5851 10.385 17.1378 -2.5851 -1.98539 -9.97614 -49.2825 13.5231 4.39396 -33.3927 7.67882 -2.36853 -35.6151 47.7565 -33.6199 12.8557 27.7383 -54.634 55.7221 -23.0447 10.1567 100.581 -3.03458 13.5333 -2.18205 -35.3167 20.4567 4.66828 -36.3891 20.9689 4.99574 -1.00372 1.77407 1.17347 -42.7841 24.7471 5.54518 -8.91324 5.62873 -0.442302 -6.58205 6.72805 5.06488 -13.8828 9.68231 -0.672248 -15.2684 10.6411 -0.61061 13.8074 -0.976083 8.79335 -17.7367 12.2751 -1.06115 -8.7506 6.03025 -1.00081 -11.5753 -16.7454 -49.448 -4.53231 0.274132 0.313032 8.53293 10.6973 -3.07904 -9.12842 -0.979089 9.95788 -27.8291 -48.9673 20.1664 -12.182 -64.9747 -48.8651 15.7867 20.2839 -59.2056 11.6478 14.2793 0.992686 44.2764 13.157 -6.11038 45.4054 13.4038 -6.3863 23.1834 8.33157 -2.56733 52.3752 15.6204 -6.40184 15.3504 5.19873 -0.33344 25.2689 18.9547 -14.6865 34.2738 12.851 -1.99876 35.901 13.3937 -2.27897 41.1339 16.4552 -22.7613 33.5475 12.5281 -0.865841 5.34492 2.01272 0.361136 9.91524 -19.9007 48.0803 1.41313 -0.442778 -1.52289 -7.19739 14.5369 5.60466 -61.2772 -10.4904 -46.6766 3.1656 8.13333 -0.322912 11.5316 13.7769 -0.224575 0.766485 5.22698 -0.334955 102.423 -48.2423 99.4124 0.106568 0.00255505 -0.323357 -7.73506 16.5518 -8.19608 0.582159 -4.34446 0.0220607 
